<svg width="466" height="79" viewBox="0 0 466 79" fill="none" xmlns="http://www.w3.org/2000/svg">
<path d="M138 13.0001L100 2.81793H33.5C33.5 2.81793 0.5 5.81763 0.5 39.3179C0.5 72.8181 33.5 74 33.5 74H100L138 63.8179V13.0001Z" stroke="#3EA0FF"/>
<rect x="341" y="51.5" width="9" height="21" transform="rotate(-90 341 51.5)" stroke="#3EA0FF"/>
<rect x="326" y="49.5" width="5" height="15" transform="rotate(-90 326 49.5)" stroke="#3EA0FF"/>
<rect x="326" y="31.5" width="5" height="15" transform="rotate(-90 326 31.5)" stroke="#3EA0FF"/>
<rect x="341" y="33.5" width="9" height="21" transform="rotate(-90 341 33.5)" stroke="#3EA0FF"/>
<rect x="362" y="64.5" width="51" height="3" transform="rotate(-90 362 64.5)" stroke="#3EA0FF"/>
<line x1="137.5" y1="47" x2="325.5" y2="47" stroke="#3EA0FF"/>
<line x1="137.5" y1="29" x2="325.5" y2="29" stroke="#3EA0FF"/>
<rect x="365" y="78.5" width="78" height="10" transform="rotate(-90 365 78.5)" stroke="#3EA0FF"/>
<rect x="376" y="73.5" width="69" height="1" transform="rotate(-90 376 73.5)" stroke="#3EA0FF"/>
<line x1="365.5" y1="64.5" x2="374.5" y2="64.5" stroke="#3EA0FF"/>
<line x1="365.5" y1="54.5" x2="374.5" y2="54.5" stroke="#3EA0FF"/>
<line x1="365.5" y1="23.5" x2="374.5" y2="23.5" stroke="#3EA0FF"/>
<line x1="365.5" y1="13.5" x2="374.5" y2="13.5" stroke="#3EA0FF"/>
<rect x="378" y="68.5" width="60" height="12" transform="rotate(-90 378 68.5)" stroke="#3EA0FF"/>
<rect x="391" y="75.5" width="75" height="19" transform="rotate(-90 391 75.5)" stroke="#3EA0FF"/>
<line x1="391.5" y1="64.5" x2="409.5" y2="64.5" stroke="#3EA0FF"/>
<line x1="391.5" y1="54.5" x2="409.5" y2="54.5" stroke="#3EA0FF"/>
<line x1="391.5" y1="23.5" x2="409.5" y2="23.5" stroke="#3EA0FF"/>
<line x1="391.5" y1="13.5" x2="409.5" y2="13.5" stroke="#3EA0FF"/>
<rect x="410" y="69.5" width="60" height="50" transform="rotate(-90 410 69.5)" stroke="#3EA0FF"/>
<path d="M461 13.5H465V62.5H461V13.5Z" stroke="#3EA0FF"/>
<circle cx="36" cy="38.5" r="20" transform="rotate(-90 36 38.5)" stroke="#3EA0FF"/>
<circle cx="97" cy="38.5" r="20" transform="rotate(-90 97 38.5)" stroke="#3EA0FF"/>
<circle cx="36" cy="38.5" r="15" transform="rotate(-90 36 38.5)" stroke="#3EA0FF"/>
<circle cx="36" cy="38.5" r="7" transform="rotate(-90 36 38.5)" stroke="#3EA0FF"/>
<circle cx="97" cy="38.5" r="15" transform="rotate(-90 97 38.5)" stroke="#3EA0FF"/>
<circle cx="97" cy="38.5" r="11" transform="rotate(-90 97 38.5)" stroke="#3EA0FF"/>
<circle cx="97" cy="38.5" r="9" transform="rotate(-90 97 38.5)" stroke="#3EA0FF"/>
<rect x="17" y="45.5" width="14" height="4" rx="1.5" transform="rotate(-90 17 45.5)" stroke="#3EA0FF"/>
<rect x="51" y="45.5" width="14" height="4" rx="1.5" transform="rotate(-90 51 45.5)" stroke="#3EA0FF"/>
<rect x="42" y="23.5" width="13" height="4" rx="1.5" transform="rotate(-180 42 23.5)" stroke="#3EA0FF"/>
<rect x="42" y="57.5" width="13" height="4" rx="1.5" transform="rotate(-180 42 57.5)" stroke="#3EA0FF"/>
<path d="M21.5 38.5372H50.5M35.7632 53.75V23.75" stroke="#3EA0FF"/>
<path d="M81.5 38.8085H112.5M96.7281 53V24" stroke="#3EA0FF"/>
</svg>
